<?xml version="1.0" encoding="utf-8"?>
<!-- Generator: Adobe Illustrator 16.0.0, SVG Export Plug-In . SVG Version: 6.00 Build 0)  -->
<!DOCTYPE svg PUBLIC "-//W3C//DTD SVG 1.1//EN" "http://www.w3.org/Graphics/SVG/1.1/DTD/svg11.dtd">
<svg version="1.1" id="Layer_1" xmlns="http://www.w3.org/2000/svg" xmlns:xlink="http://www.w3.org/1999/xlink" x="0px" y="0px"
	 width="572px" height="133.333px" viewBox="0 0 572 133.333" enable-background="new 0 0 572 133.333" xml:space="preserve">
<path fill="none" d="M271.024,81.342h8.535l1.579,7.176h8.996l-10.237-42.603h-8.872l-9.892,42.603h8.375L271.024,81.342z
	 M274.197,63.313l0.903-6.443h0.101l0.961,6.443l2.161,11.384h-5.942L274.197,63.313z"/>
<polygon fill="none" points="310.974,80.623 302.165,80.623 302.165,45.915 293.752,45.915 293.752,88.518 310.974,88.518 "/>
<path fill="none" d="M218.173,68.856h0.12l7.382,19.662h8.884l-7.411-19.389c4.046-2.209,6.048-5.892,6.048-11.014
	c0-2.214-0.354-4.129-1.101-5.741c-0.722-1.603-1.589-2.803-2.565-3.606c-0.987-0.816-2.225-1.448-3.754-1.894
	c-1.53-0.458-2.826-0.736-3.872-0.825c-1.059-0.097-2.283-0.135-3.678-0.135h-8.478v42.603h8.425V68.856z M218.173,52.859h1.126
	c1.995-0.11,3.444,0.333,4.352,1.33c0.905,1.002,1.357,2.336,1.357,3.981c0,1.848-0.431,3.329-1.296,4.448
	c-0.871,1.094-2.224,1.646-4.067,1.646l-1.471-0.055V52.859z"/>
<path fill="none" d="M246.495,70.451c0.194,0.151,0.568,0.412,1.157,0.809c0.591,0.412,0.996,0.682,1.216,0.846
	c0.238,0.155,0.547,0.446,0.959,0.824c0.413,0.392,0.705,0.732,0.907,1.057c0.187,0.315,0.349,0.711,0.505,1.179
	c0.154,0.467,0.229,0.98,0.229,1.502c0,1.394-0.459,2.513-1.385,3.371c-0.919,0.821-2.087,1.263-3.474,1.263
	c-2.081,0-4.202-0.749-6.382-2.252v8.026c1.942,1.409,4.36,2.134,7.222,2.134c3.844,0,6.857-1.229,9.01-3.704
	c2.18-2.445,3.253-5.622,3.253-9.591c0-2.134-0.439-4.02-1.311-5.669c-0.89-1.642-1.976-2.959-3.211-3.973
	c-1.237-1.035-2.487-1.974-3.75-2.862c-1.256-0.879-2.336-1.855-3.226-2.916c-0.877-1.048-1.328-2.21-1.328-3.502
	c0-1.271,0.391-2.302,1.136-3.03c0.745-0.77,1.787-1.158,3.1-1.158c2.001,0,4.04,0.918,6.104,2.719v-8.194
	c-2.363-1.393-4.863-2.096-7.456-2.096c-3.476,0-6.182,1.216-8.15,3.624c-1.997,2.42-2.988,5.396-2.988,8.935
	c0,2.9,0.65,5.286,1.925,7.15C241.846,66.802,243.824,68.625,246.495,70.451z"/>
<path fill="none" d="M343.08,81.359h8.53l1.579,7.159h8.997l-10.218-42.603h-8.889l-9.882,42.603h8.358L343.08,81.359z
	 M346.236,63.322l0.913-6.452h0.114l0.951,6.452l2.146,11.375h-5.938L346.236,63.322z"/>
<polygon fill="none" points="503.483,80.623 494.827,80.623 494.827,71.015 502.348,71.015 502.348,63.103 494.827,63.103 
	494.827,53.835 503.391,53.835 503.391,45.915 486.418,45.915 486.418,88.518 503.483,88.518 "/>
<path fill="none" d="M379.307,88.518L391.1,45.915h-8.805l-5.13,20.356c-0.29,0.968-0.552,2.378-0.804,4.234
	c-0.315,1.839-0.476,2.892-0.51,3.178h-0.113c-0.118-0.522-0.253-1.305-0.434-2.298c-0.16-1.002-0.337-1.902-0.488-2.735
	c-0.181-0.783-0.387-1.553-0.581-2.269l-5.108-20.466H360.1l12.297,42.603H379.307z"/>
<path fill="none" d="M428.088,68.982l-0.075-1.751l-0.396-4.305l0.122-0.101l10.392,25.693h7.967V45.915h-8.413v19.166
	c0,2.483,0.228,4.634,0.673,6.431l-0.117,0.118l-10.501-25.714h-8.088v42.603h8.438V68.982z"/>
<polygon fill="none" points="412.819,80.623 404.171,80.623 404.171,71.015 411.713,71.015 411.713,63.103 404.171,63.103 
	404.171,53.835 412.693,53.835 412.693,45.915 395.745,45.915 395.745,88.518 412.819,88.518 "/>
<path fill="none" d="M466.2,89.208c2.307,0,4.289-0.286,5.959-0.863c1.68-0.568,2.95-1.271,3.771-2.062
	c0.829-0.825,1.46-1.811,1.936-3.056c0.468-1.229,0.762-2.29,0.842-3.19c0.093-0.842,0.173-1.89,0.173-3.03V45.915h-8.438V75.32
	c0,0.854-0.017,1.494-0.051,1.886c-0.042,0.387-0.117,0.935-0.265,1.642c-0.144,0.686-0.32,1.19-0.631,1.502
	c-0.278,0.286-0.707,0.589-1.221,0.833c-0.564,0.266-1.221,0.396-2.004,0.396c-1.843,0-3.06-0.837-3.687-2.486
	c-0.324-0.905-0.513-2.744-0.513-5.572V45.915h-8.413v31.648c0,3.923,1.081,6.835,3.224,8.767
	C459.079,88.245,462.164,89.208,466.2,89.208z"/>
<path fill="none" d="M81.529,89.355c2.3,0,4.288-0.286,5.963-0.871c1.667-0.593,2.936-1.267,3.76-2.083
	c0.823-0.749,1.469-1.81,1.946-3.067c0.467-1.217,0.751-2.269,0.846-3.132c0.097-0.871,0.134-1.894,0.134-3.03V46.066h-8.408v29.384
	c0,0.896-0.034,1.498-0.057,1.873c-0.04,0.433-0.126,0.942-0.269,1.662c-0.114,0.694-0.324,1.19-0.619,1.502
	c-0.282,0.308-0.695,0.577-1.235,0.854c-0.541,0.235-1.21,0.388-2.003,0.388c-1.854,0-3.072-0.821-3.687-2.496
	c-0.324-0.888-0.488-2.77-0.488-5.598v-27.57h-8.421V77.71c0,3.931,1.08,6.835,3.243,8.767C74.408,88.4,77.491,89.355,81.529,89.355
	z"/>
<path fill="none" d="M110.162,69.007l-0.055-1.738l-0.389-4.297l0.107-0.118l10.38,25.718h7.988v-42.62h-8.428v19.161
	c0,2.483,0.225,4.629,0.673,6.439l-0.118,0.118l-10.496-25.718h-8.084v42.62h8.421V69.007z"/>
<rect x="136.357" y="45.953" fill="none" width="8.43" height="42.62"/>
<path fill="none" d="M169.372,88.518l11.807-42.603h-8.817l-5.124,20.327c-0.276,0.989-0.551,2.399-0.825,4.25
	c-0.292,1.822-0.45,2.904-0.471,3.161h-0.116c-0.122-0.522-0.275-1.284-0.436-2.29c-0.168-1.001-0.333-1.906-0.507-2.714
	c-0.179-0.792-0.368-1.562-0.598-2.29l-5.082-20.445h-9.04l12.323,42.603H169.372z"/>
<polygon fill="none" points="202.895,80.615 194.24,80.615 194.24,71.006 201.764,71.006 201.764,63.094 194.24,63.094 
	194.24,53.81 202.768,53.81 202.768,45.915 185.816,45.915 185.816,88.518 202.895,88.518 "/>
<path fill="#FFFFFF" d="M14.5,13.943v107.275h543V13.943H14.5z M550.526,114.241H21.472v-93.32h529.055V114.241z"/>
<polygon fill="#FFFFFF" points="348.215,63.322 347.264,56.87 347.149,56.87 346.236,63.322 344.423,74.697 350.361,74.697 "/>
<polygon fill="#FFFFFF" points="276.163,63.313 275.201,56.87 275.1,56.87 274.197,63.313 272.381,74.697 278.324,74.697 "/>
<path fill="#FFFFFF" d="M25.758,110.427c0,0,4.025-1.982,6.104-1.982c1.965,0,460.898,0,508.294,0c2.046,0,6.099,1.982,6.099,1.982
	s-2.003-3.993-2.003-5.445c0-17.756,0-73.51,0-74.811c0-1.464,2.003-5.437,2.003-5.437s-4.053,2.003-6.099,2.003
	c-47.396,0-506.329,0-508.294,0c-2.079,0-6.104-2.003-6.104-2.003s1.988,3.973,1.988,5.437c0,1.301,0,57.055,0,74.811
	C27.746,106.434,25.758,110.427,25.758,110.427z M486.418,45.915h16.973v7.92h-8.563v9.267h7.521v7.913h-7.521v9.607h8.656v7.896
	h-17.065V45.915z M453.659,45.915h8.413v27.604c0,2.828,0.188,4.667,0.513,5.572c0.627,1.649,1.844,2.486,3.687,2.486
	c0.783,0,1.439-0.13,2.004-0.396c0.514-0.244,0.942-0.547,1.221-0.833c0.311-0.312,0.487-0.816,0.631-1.502
	c0.147-0.707,0.223-1.255,0.265-1.642c0.034-0.392,0.051-1.031,0.051-1.886V45.915h8.438v31.092c0,1.141-0.08,2.188-0.173,3.03
	c-0.08,0.9-0.374,1.961-0.842,3.19c-0.476,1.245-1.106,2.23-1.936,3.056c-0.821,0.791-2.092,1.493-3.771,2.062
	c-1.67,0.577-3.652,0.863-5.959,0.863c-4.036,0-7.121-0.964-9.317-2.879c-2.143-1.932-3.224-4.844-3.224-8.767V45.915z
	 M419.65,45.915h8.088l10.501,25.714l0.117-0.118c-0.445-1.797-0.673-3.947-0.673-6.431V45.915h8.413v42.603h-7.967l-10.392-25.693
	l-0.122,0.101l0.396,4.305l0.075,1.751v19.536h-8.438V45.915z M395.745,45.915h16.948v7.92h-8.522v9.267h7.542v7.913h-7.542v9.607
	h8.648v7.896h-17.074V45.915z M369.127,45.915l5.108,20.466c0.194,0.715,0.4,1.485,0.581,2.269c0.151,0.833,0.328,1.733,0.488,2.735
	c0.181,0.993,0.315,1.775,0.434,2.298h0.113c0.034-0.286,0.194-1.339,0.51-3.178c0.252-1.855,0.514-3.266,0.804-4.234l5.13-20.356
	h8.805l-11.793,42.603h-6.91L360.1,45.915H369.127z M343.08,45.915h8.889l10.218,42.603h-8.997l-1.579-7.159h-8.53l-1.523,7.159
	h-8.358L343.08,45.915z M293.752,45.915h8.413v34.708h8.809v7.896h-17.222V45.915z M271.024,45.915h8.872l10.237,42.603h-8.996
	l-1.579-7.176h-8.535l-1.517,7.176h-8.375L271.024,45.915z M241.623,48.857c1.968-2.407,4.674-3.624,8.15-3.624
	c2.593,0,5.092,0.703,7.456,2.096v8.194c-2.064-1.801-4.104-2.719-6.104-2.719c-1.313,0-2.354,0.388-3.1,1.158
	c-0.745,0.728-1.136,1.759-1.136,3.03c0,1.292,0.45,2.454,1.328,3.502c0.89,1.061,1.97,2.037,3.226,2.916
	c1.262,0.888,2.512,1.827,3.75,2.862c1.235,1.014,2.321,2.332,3.211,3.973c0.871,1.649,1.311,3.535,1.311,5.669
	c0,3.969-1.073,7.146-3.253,9.591c-2.153,2.475-5.166,3.704-9.01,3.704c-2.862,0-5.28-0.725-7.222-2.134v-8.026
	c2.18,1.503,4.301,2.252,6.382,2.252c1.387,0,2.555-0.441,3.474-1.263c0.926-0.858,1.385-1.978,1.385-3.371
	c0-0.521-0.076-1.035-0.229-1.502c-0.156-0.468-0.318-0.863-0.505-1.179c-0.202-0.324-0.495-0.665-0.907-1.057
	c-0.412-0.378-0.722-0.669-0.959-0.824c-0.221-0.164-0.625-0.434-1.216-0.846c-0.589-0.396-0.963-0.657-1.157-0.809
	c-2.67-1.826-4.648-3.649-5.934-5.509c-1.275-1.864-1.925-4.25-1.925-7.15C238.635,54.252,239.626,51.277,241.623,48.857z
	 M209.748,45.915h8.478c1.395,0,2.62,0.038,3.678,0.135c1.046,0.088,2.342,0.366,3.872,0.825c1.53,0.446,2.767,1.078,3.754,1.894
	c0.976,0.804,1.843,2.003,2.565,3.606c0.747,1.612,1.101,3.527,1.101,5.741c0,5.122-2.001,8.804-6.048,11.014l7.411,19.389h-8.884
	l-7.382-19.662h-0.12v19.662h-8.425V45.915z M185.816,45.915h16.952v7.895h-8.528v9.284h7.524v7.912h-7.524v9.608h8.655v7.903
	h-17.078V45.915z M159.204,45.915l5.082,20.445c0.229,0.729,0.419,1.498,0.598,2.29c0.175,0.808,0.339,1.713,0.507,2.714
	c0.16,1.006,0.313,1.768,0.436,2.29h0.116c0.021-0.257,0.179-1.339,0.471-3.161c0.274-1.852,0.549-3.262,0.825-4.25l5.124-20.327
	h8.817l-11.807,42.603h-6.885l-12.323-42.603H159.204z M136.357,45.953h8.43v42.62h-8.43V45.953z M101.741,45.953h8.084
	l10.496,25.718l0.118-0.118c-0.448-1.81-0.673-3.956-0.673-6.439V45.953h8.428v42.62h-7.988l-10.38-25.718l-0.107,0.118l0.389,4.297
	l0.055,1.738v19.565h-8.421V45.953z M68.992,46.066h8.421v27.57c0,2.828,0.164,4.71,0.488,5.598
	c0.614,1.675,1.833,2.496,3.687,2.496c0.793,0,1.462-0.152,2.003-0.388c0.541-0.277,0.953-0.547,1.235-0.854
	c0.294-0.312,0.505-0.808,0.619-1.502c0.143-0.72,0.229-1.229,0.269-1.662c0.023-0.375,0.057-0.977,0.057-1.873V46.066h8.408v31.105
	c0,1.137-0.038,2.159-0.134,3.03c-0.095,0.863-0.379,1.915-0.846,3.132c-0.478,1.258-1.124,2.318-1.946,3.067
	c-0.825,0.816-2.094,1.49-3.76,2.083c-1.675,0.585-3.664,0.871-5.963,0.871c-4.038,0-7.121-0.955-9.295-2.878
	c-2.163-1.932-3.243-4.836-3.243-8.767V46.066z"/>
<path fill="#FFFFFF" d="M223.712,62.619c0.865-1.12,1.296-2.601,1.296-4.448c0-1.646-0.452-2.979-1.357-3.981
	c-0.907-0.997-2.357-1.439-4.352-1.33h-1.126v11.35l1.471,0.055C221.488,64.264,222.841,63.713,223.712,62.619z"/>
</svg>
